<svg xmlns="http://www.w3.org/2000/svg" viewBox="0 0 512 512">
  <defs>
    <linearGradient id="bg" x1="88" y1="56" x2="424" y2="456" gradientUnits="userSpaceOnUse">
      <stop offset="0" stop-color="#76d4ff" />
      <stop offset="1" stop-color="#1179c1" />
    </linearGradient>
    <linearGradient id="badge" x1="156" y1="136" x2="356" y2="376" gradientUnits="userSpaceOnUse">
      <stop offset="0" stop-color="#ffffff" />
      <stop offset="1" stop-color="#def5ff" />
    </linearGradient>
  </defs>
  <rect width="512" height="512" rx="112" fill="url(#bg)" />
  <circle cx="136" cy="122" r="28" fill="#ffe27d" />
  <circle cx="390" cy="146" r="18" fill="#8de2ff" />
  <circle cx="382" cy="378" r="24" fill="#ffd56a" />
  <rect x="110" y="118" width="292" height="292" rx="84" fill="url(#badge)" />
  <path
    d="M182 214h148M182 300h148M256 164v86M221 257h70"
    stroke="#15557f"
    stroke-linecap="round"
    stroke-width="28"
  />
  <path
    d="M330 220c20 0 36 16 36 36v22c0 20-16 36-36 36s-36-16-36-36v-22c0-20 16-36 36-36Z"
    fill="#1ea9c8"
  />
  <path
    d="M319 257h22M330 246v22"
    stroke="#ffffff"
    stroke-linecap="round"
    stroke-width="12"
  />
</svg>
